# xmcd
#
# Track frame offsets:
#	151
#	13971
#	24266
#	41465
#	54341
#	68489
#	80910
#	95182
#	114414
#	132618
#	145633
#	158824
#	173697
#
# Disc length: 2468 seconds
#
# Revision: 0
# Processed by: cddbd v1.4PL0 Copyright (c) Steve Scherf et al.
# Submitted via: EasyCDDAExtractor 4.6.9.1
#
DISCID=a909a20d
DTITLE=Gram Parsons - Dim Lights Thick Smoke And Loud Loud Music(vinyl bootleg
DTITLE=)
DYEAR=1900
DGENRE=Coountry
TTITLE0=Six More days And I'll Be Gone
TTITLE1=Close Up The Honky Tonks
TTITLE2=Sing Me Back Home
TTITLE3=Tinight The Bottle Let me Down
TTITLE4=Your Angel Steps Out Of Heaven Each Night
TTITLE5=Crazy Arms
TTITLE6=Together Again
TTITLE7=Honky Tonk Woman
TTITLE8=Green Green Grass Of Home
TTITLE9=Dim Lights Thick Smoke And Loud Loud Music
TTITLE10=Bonny Marone
TTITLE11=To Love Somebody
TTITLE12=Break My Mind
EXTD=
EXTT0=
EXTT1=
EXTT2=
EXTT3=
EXTT4=
EXTT5=
EXTT6=
EXTT7=
EXTT8=
EXTT9=
EXTT10=
EXTT11=
EXTT12=
PLAYORDER=
